<?xml version="1.0" encoding="UTF-8"?>
<svg xmlns="http://www.w3.org/2000/svg" width="1024" height="1024" viewBox="0 0 512 512">
  <defs>
    <!-- Gradient similar to the reference (orange -> purple) -->
    <radialGradient id="grad" cx="50%" cy="60%" r="65%">
      <stop offset="0%" stop-color="#FF7A45" stop-opacity="1"/>
      <stop offset="100%" stop-color="#7B5CD6" stop-opacity="1"/>
    </radialGradient>

    <!-- Mask to form 5 rounded petals with inner cutouts -->
    <mask id="petalMask">
      <rect width="512" height="512" fill="black"/>
      <!-- Outer petals -->
      <g fill="white" transform="translate(0,0)">
        <ellipse cx="256" cy="176" rx="120" ry="200" transform="rotate(0 256 256)"/>
        <ellipse cx="256" cy="176" rx="120" ry="200" transform="rotate(72 256 256)"/>
        <ellipse cx="256" cy="176" rx="120" ry="200" transform="rotate(144 256 256)"/>
        <ellipse cx="256" cy="176" rx="120" ry="200" transform="rotate(216 256 256)"/>
        <ellipse cx="256" cy="176" rx="120" ry="200" transform="rotate(288 256 256)"/>
      </g>
      <!-- Inner petal cutouts -->
      <g fill="black">
        <ellipse cx="256" cy="216" rx="64" ry="112" transform="rotate(0 256 256)"/>
        <ellipse cx="256" cy="216" rx="64" ry="112" transform="rotate(72 256 256)"/>
        <ellipse cx="256" cy="216" rx="64" ry="112" transform="rotate(144 256 256)"/>
        <ellipse cx="256" cy="216" rx="64" ry="112" transform="rotate(216 256 256)"/>
        <ellipse cx="256" cy="216" rx="64" ry="112" transform="rotate(288 256 256)"/>
      </g>
      <!-- Center knock-out -->
      <circle cx="256" cy="256" r="26" fill="black"/>
    </mask>
  </defs>

  <!-- Base circle filled with gradient, masked into the flower shape -->
  <circle cx="256" cy="256" r="220" fill="url(#grad)" mask="url(#petalMask)"/>
</svg>